# xmcd
#
# Track frame offsets: 
#        182
#        18455
#        41177
#        58402
#        76515
#        97432
#        113565
#        132655
#        151525
#        177325
#
# Disc length: 2560 seconds
#
# Revision: 2
# Processed by: cddbd v1.5.2PL0 Copyright (c) Steve Scherf et al.
# Submitted via: ExactAudioCopyFreeDBPlugin 1.0
#
DISCID=8209fe0a
DTITLE=Chris Thomas King - Chris Thomas King
DYEAR=1997
DGENRE=Blues
TTITLE0=Impatiently
TTITLE1=Ain't That A....
TTITLE2=I'll Play The Blues For You
TTITLE3=Weekend Rendezous
TTITLE4=I Cried
TTITLE5=L.A.Angel
TTITLE6=Wonderful
TTITLE7=Take Me
TTITLE8=C'est La Vie
TTITLE9=Wanna Die With A Smile On My Face
EXTD=
EXTT0=
EXTT1=
EXTT2=
EXTT3=
EXTT4=
EXTT5=
EXTT6=
EXTT7=
EXTT8=
EXTT9=
PLAYORDER=
